<svg width="40" height="40" viewBox="0 0 40 40" fill="none" xmlns="http://www.w3.org/2000/svg">
<path d="M28.0001 15.3333H27.2654C27.1187 14.6107 26.7281 13.9827 26.1961 13.512C26.8814 13.028 27.3334 12.2347 27.3334 11.3333C27.3334 9.78533 25.9907 8.55467 24.4321 8.67733C23.8841 7.09067 22.3961 6 20.6667 6C20.0641 6 19.4681 6.14 18.9214 6.40933C18.4321 6.14 17.8907 6 17.3334 6C15.9041 6 14.6814 6.90533 14.2081 8.172C13.6201 7.65067 12.8467 7.33333 12.0001 7.33333C10.1627 7.33333 8.66675 8.828 8.66675 10.6667C8.66675 11.708 9.16941 12.6933 10.0001 13.3187V18.6667C10.0001 19.5347 10.5587 20.268 11.3334 20.544V30.6667C11.3334 32.5053 12.8294 34 14.6667 34H24.0001C25.8374 34 27.3334 32.5053 27.3334 30.6667V26H28.0001C29.8374 26 31.3334 24.5053 31.3334 22.6667V18.6667C31.3334 16.828 29.8374 15.3333 28.0001 15.3333ZM10.0001 10.6667C10.0001 9.564 10.8974 8.66667 12.0001 8.66667C13.1027 8.66667 14.0001 9.564 14.0001 10.6667C14.0001 11.0347 14.2987 11.3333 14.6667 11.3333H15.0361C15.2747 11.3333 15.4947 11.2053 15.6147 10.9987C15.7334 10.792 15.7321 10.5373 15.6121 10.3307C15.4267 10.0133 15.3334 9.67733 15.3334 9.33333C15.3334 8.23067 16.2307 7.33333 17.3334 7.33333C17.7521 7.33333 18.1574 7.468 18.5054 7.72267C18.7281 7.88267 19.0227 7.89467 19.2534 7.748C19.6854 7.476 20.1734 7.33333 20.6667 7.33333C21.9774 7.33333 23.0814 8.27733 23.2881 9.57867C23.3201 9.77733 23.4401 9.95067 23.6147 10.0507C23.7894 10.1507 24.0001 10.1653 24.1881 10.0933C25.0921 9.74 26.0001 10.44 26.0001 11.3333C26.0001 12.0693 25.4014 12.6667 24.6667 12.6667C24.2094 12.6667 23.7894 12.432 23.5414 12.04C23.4347 11.8707 23.2574 11.7573 23.0574 11.7347C22.8601 11.7067 22.6587 11.7773 22.5147 11.916C21.5961 12.8027 20.1107 12.9107 19.0694 12.12C18.8667 11.9667 18.5974 11.94 18.3707 12.0547C18.1427 12.1667 18.0001 12.3987 18.0001 12.6507V14.6667C18.0001 15.0333 17.7014 15.3333 17.3334 15.3333C16.9654 15.3333 16.6667 15.0333 16.6667 14.6667V13.3333C16.6667 12.9653 16.3681 12.6667 16.0001 12.6667H13.3334C12.9654 12.6667 12.6667 12.9653 12.6667 13.3333V18.6667C12.6667 19.0333 12.3681 19.3333 12.0001 19.3333C11.6321 19.3333 11.3334 19.0333 11.3334 18.6667V12.964C11.3334 12.7267 11.2067 12.5067 11.0014 12.388C10.3747 12.0227 10.0001 11.3787 10.0001 10.6667ZM26.0001 30.6667C26.0001 31.7693 25.1027 32.6667 24.0001 32.6667H14.6667C13.5641 32.6667 12.6667 31.7693 12.6667 30.6667V20.544C13.4414 20.268 14.0001 19.5347 14.0001 18.6667V14H15.3334V14.6667C15.3334 15.7693 16.2307 16.6667 17.3334 16.6667C18.4361 16.6667 19.3334 15.7693 19.3334 14.6667V13.7667C20.5014 14.188 21.8614 14.0147 22.8921 13.32C23.0614 13.472 23.2547 13.592 23.4561 13.696C23.5761 13.8747 23.7694 14 24.0001 14C25.1027 14 26.0001 14.8973 26.0001 16V30.6667ZM30.0001 22.6667C30.0001 23.7693 29.1027 24.6667 28.0001 24.6667H27.3334V16.6667H28.0001C29.1027 16.6667 30.0001 17.564 30.0001 18.6667V22.6667Z" fill="#FAFAFA"/>
<path d="M16 19.3335C15.632 19.3335 15.3334 19.6322 15.3334 20.0002V28.0002C15.3334 28.3682 15.632 28.6668 16 28.6668C16.368 28.6668 16.6667 28.3682 16.6667 28.0002V20.0002C16.6667 19.6322 16.368 19.3335 16 19.3335Z" fill="#FAFAFA"/>
<path d="M19.3334 19.3335C18.9654 19.3335 18.6667 19.6322 18.6667 20.0002V28.0002C18.6667 28.3682 18.9654 28.6668 19.3334 28.6668C19.7014 28.6668 20.0001 28.3682 20.0001 28.0002V20.0002C20.0001 19.6322 19.7014 19.3335 19.3334 19.3335Z" fill="#FAFAFA"/>
<path d="M22.6668 19.3335C22.2988 19.3335 22.0001 19.6322 22.0001 20.0002V28.0002C22.0001 28.3682 22.2988 28.6668 22.6668 28.6668C23.0348 28.6668 23.3335 28.3682 23.3335 28.0002V20.0002C23.3335 19.6322 23.0348 19.3335 22.6668 19.3335Z" fill="#FAFAFA"/>
<path d="M20.6668 9.33333C21.0348 9.33333 21.3335 9.63333 21.3335 10C21.3335 10.368 21.6321 10.6667 22.0001 10.6667C22.3681 10.6667 22.6668 10.368 22.6668 10C22.6668 8.89733 21.7695 8 20.6668 8C20.2988 8 20.0001 8.29867 20.0001 8.66667C20.0001 9.03467 20.2988 9.33333 20.6668 9.33333Z" fill="#FAFAFA"/>
</svg>
