<svg width="40" height="40" viewBox="0 0 40 40" fill="none" xmlns="http://www.w3.org/2000/svg">
<g clip-path="url(#clip0_5266_1311)">
<path d="M30.5201 14.842C30.5201 9.34269 26.0639 4.88574 20.5632 4.88574C15.0646 4.88574 10.6069 9.34269 10.6069 14.842C10.6069 19.9482 14.4521 24.1496 19.4035 24.7253V28.7517H18.575V35.1156H19.4035H21.7243H22.5528V28.7517H21.7243V24.7253C26.6764 24.1496 30.5201 19.9475 30.5201 14.842ZM20.6215 23.2503C15.9965 23.2503 12.2472 19.5024 12.2472 14.8774C12.2472 10.2531 15.9965 6.5038 20.6215 6.5038C25.2458 6.5038 28.9951 10.2531 28.9951 14.8774C28.9944 19.5017 25.2458 23.2503 20.6215 23.2503Z" fill="#FAFAFA"/>
<path d="M8.76531 19.0697C8.23128 18.535 7.92573 17.8607 7.84309 17.1642L7.83545 17.1572L7.82295 17.1669C7.73962 17.8621 7.43406 18.5343 6.90073 19.0663C6.36809 19.5996 5.69656 19.9044 5.00212 19.9885L4.9917 20.0003L5.00003 20.0086C5.69517 20.0913 6.37017 20.3968 6.90559 20.9315C7.43962 21.4663 7.74448 22.1399 7.82712 22.8364L7.83614 22.8447L7.84378 22.8364C7.92642 22.1399 8.23198 21.4656 8.766 20.9315C9.30003 20.3975 9.97503 20.0919 10.6716 20.0086L10.6785 20.0003L10.6709 19.9919C9.97364 19.91 9.29934 19.6044 8.76531 19.0697Z" fill="#FAFAFA"/>
<path d="M5.44859 16.2346L5.45415 16.2283C5.51457 15.7145 5.74096 15.2158 6.1354 14.8214C6.52984 14.427 7.02776 14.2006 7.54304 14.1395L7.54859 14.1339L7.54304 14.1283C7.02776 14.0672 6.52984 13.8408 6.1354 13.4471C5.74096 13.0526 5.51457 12.5533 5.45415 12.0395L5.44859 12.0332L5.43957 12.0415C5.37846 12.5554 5.15207 13.052 4.75901 13.445C4.36596 13.8388 3.86873 14.0645 3.35554 14.1263L3.3479 14.1339L3.35415 14.1395C3.86804 14.2006 4.36596 14.427 4.76109 14.8214C5.15484 15.2158 5.38123 15.7145 5.44165 16.2283L5.44859 16.2346Z" fill="#FAFAFA"/>
<path d="M36.6424 26.0251C35.8188 25.9286 35.0216 25.5674 34.391 24.9362C33.7605 24.3043 33.398 23.5077 33.3021 22.6855L33.2924 22.6758L33.2778 22.6897C33.1806 23.5098 32.8195 24.3036 32.1903 24.932C31.5612 25.5619 30.7667 25.9237 29.9466 26.0209L29.9341 26.0355L29.9438 26.0445C30.766 26.1424 31.5626 26.5036 32.1931 27.1355C32.8257 27.7654 33.1862 28.5626 33.282 29.3848L33.2931 29.3945L33.3028 29.3848C33.3994 28.5619 33.7612 27.7654 34.3917 27.1355C35.0223 26.5036 35.8202 26.1418 36.6431 26.0445L36.6528 26.0355L36.6424 26.0251Z" fill="#FAFAFA"/>
<path d="M27.5562 13.3281L19.0388 21.8462C19.877 22.033 20.5048 22.1038 20.9506 22.1233C21.1576 22.1156 21.3631 22.1087 21.5659 22.0844L27.8201 15.8295C27.9117 14.7906 27.7124 13.8615 27.5562 13.3281Z" fill="#FAFAFA"/>
<path d="M25.4694 10.1157L15.8076 19.7768C16.1021 20.0963 16.6791 20.6803 17.2791 21.0727L26.7569 11.5935C26.3444 10.9616 25.8326 10.4421 25.4694 10.1157Z" fill="#FAFAFA"/>
</g>
<defs>
<clipPath id="clip0_5266_1311">
<rect width="33.3333" height="33.3333" fill="white" transform="translate(3.33337 3.3335)"/>
</clipPath>
</defs>
</svg>
