<svg width="40" height="40" viewBox="0 0 40 40" fill="none" xmlns="http://www.w3.org/2000/svg">
<g clip-path="url(#clip0_5266_1402)">
<path d="M33.5417 3.3335H8.54171C7.71291 3.3335 6.91805 3.66274 6.332 4.24879C5.74595 4.83484 5.41671 5.62969 5.41671 6.4585V10.6252H4.37504C4.09877 10.6252 3.83382 10.7349 3.63847 10.9303C3.44312 11.1256 3.33337 11.3906 3.33337 11.6668C3.33337 11.9431 3.44312 12.208 3.63847 12.4034C3.83382 12.5987 4.09877 12.7085 4.37504 12.7085H5.41671V23.1252H4.37504C4.09877 23.1252 3.83382 23.2349 3.63847 23.4303C3.44312 23.6256 3.33337 23.8906 3.33337 24.1668C3.33337 24.4431 3.44312 24.708 3.63847 24.9034C3.83382 25.0987 4.09877 25.2085 4.37504 25.2085H5.41671V29.3752C5.41671 30.204 5.74595 30.9988 6.332 31.5849C6.91805 32.1709 7.71291 32.5002 8.54171 32.5002H8.77087L9.41671 35.0939C9.53036 35.5437 9.79086 35.9426 10.1569 36.2275C10.523 36.5124 10.9737 36.667 11.4375 36.6668H13.9792C14.4431 36.667 14.8938 36.5124 15.2598 36.2275C15.6259 35.9426 15.8864 35.5437 16 35.0939L16.6459 32.5002H25.4375L26.0834 35.0939C26.197 35.5437 26.4575 35.9426 26.8236 36.2275C27.1896 36.5124 27.6403 36.667 28.1042 36.6668H30.6459C31.1097 36.667 31.5604 36.5124 31.9265 36.2275C32.2926 35.9426 32.5531 35.5437 32.6667 35.0939L33.3125 32.5002H33.5417C34.3705 32.5002 35.1654 32.1709 35.7514 31.5849C36.3375 30.9988 36.6667 30.204 36.6667 29.3752V6.4585C36.6667 5.62969 36.3375 4.83484 35.7514 4.24879C35.1654 3.66274 34.3705 3.3335 33.5417 3.3335ZM7.50004 12.7085H9.58337V23.1252H7.50004V12.7085ZM11.6667 9.5835H30.4167V26.2502H11.6667V9.5835ZM13.9792 34.5835H11.4375L10.9167 32.5002H14.5L13.9792 34.5835ZM30.6459 34.5835H28.1042L27.5834 32.5002H31.1667L30.6459 34.5835ZM34.5834 29.3752C34.5834 29.6514 34.4736 29.9164 34.2783 30.1117C34.0829 30.3071 33.818 30.4168 33.5417 30.4168H8.54171C8.26544 30.4168 8.00049 30.3071 7.80514 30.1117C7.60979 29.9164 7.50004 29.6514 7.50004 29.3752V25.2085H9.58337V27.2918C9.58337 27.5681 9.69312 27.833 9.88847 28.0284C10.0838 28.2237 10.3488 28.3335 10.625 28.3335H31.4584C31.7346 28.3335 31.9996 28.2237 32.1949 28.0284C32.3903 27.833 32.5 27.5681 32.5 27.2918V8.54183C32.5 8.26556 32.3903 8.00061 32.1949 7.80526C31.9996 7.60991 31.7346 7.50016 31.4584 7.50016H10.625C10.3488 7.50016 10.0838 7.60991 9.88847 7.80526C9.69312 8.00061 9.58337 8.26556 9.58337 8.54183V10.6252H7.50004V6.4585C7.50004 6.18223 7.60979 5.91728 7.80514 5.72193C8.00049 5.52658 8.26544 5.41683 8.54171 5.41683H33.5417C33.818 5.41683 34.0829 5.52658 34.2783 5.72193C34.4736 5.91728 34.5834 6.18223 34.5834 6.4585V29.3752Z" fill="#FAFAFA"/>
<path d="M23.1251 12.7085C22.095 12.7085 21.088 13.014 20.2315 13.5863C19.375 14.1586 18.7074 14.972 18.3132 15.9237C17.919 16.8754 17.8159 17.9226 18.0168 18.9329C18.2178 19.9432 18.7138 20.8713 19.4422 21.5997C20.1706 22.3281 21.0987 22.8241 22.109 23.0251C23.1193 23.2261 24.1665 23.1229 25.1182 22.7287C26.0699 22.3345 26.8834 21.6669 27.4557 20.8104C28.028 19.9539 28.3334 18.9469 28.3334 17.9168C28.3334 17.2329 28.1987 16.5556 27.937 15.9237C27.6752 15.2918 27.2916 14.7176 26.8079 14.234C26.3243 13.7503 25.7501 13.3667 25.1182 13.105C24.4863 12.8432 23.8091 12.7085 23.1251 12.7085ZM23.1251 21.0418C22.507 21.0418 21.9028 20.8586 21.3889 20.5152C20.875 20.1718 20.4745 19.6837 20.238 19.1127C20.0014 18.5417 19.9396 17.9134 20.0601 17.3072C20.1807 16.701 20.4783 16.1442 20.9154 15.7071C21.3524 15.2701 21.9092 14.9725 22.5154 14.8519C23.1216 14.7313 23.75 14.7932 24.321 15.0297C24.892 15.2662 25.38 15.6668 25.7234 16.1807C26.0668 16.6946 26.2501 17.2988 26.2501 17.9168C26.2501 18.7456 25.9208 19.5405 25.3348 20.1265C24.7487 20.7126 23.9539 21.0418 23.1251 21.0418Z" fill="#FAFAFA"/>
</g>
<defs>
<clipPath id="clip0_5266_1402">
<rect width="33.3333" height="33.3333" fill="white" transform="translate(3.33337 3.3335)"/>
</clipPath>
</defs>
</svg>
