<svg width="40" height="40" viewBox="0 0 40 40" fill="none" xmlns="http://www.w3.org/2000/svg">
<g clip-path="url(#clip0_5266_1387)">
<path d="M27.6389 36.6668H12.3611C10.4466 36.6668 8.88892 35.1092 8.88892 33.1946V6.80572C8.88892 4.89113 10.4466 3.3335 12.3611 3.3335H27.6389C29.5535 3.3335 31.1111 4.89113 31.1111 6.80572V33.1946C31.1111 35.1092 29.5535 36.6668 27.6389 36.6668ZM12.3611 4.72238C11.2125 4.72238 10.2778 5.65711 10.2778 6.80572V33.1946C10.2778 34.3432 11.2125 35.2779 12.3611 35.2779H27.6389C28.7875 35.2779 29.7222 34.3432 29.7222 33.1946V6.80572C29.7222 5.65711 28.7875 4.72238 27.6389 4.72238H12.3611Z" fill="#FAFAFA"/>
<path d="M30.4167 10.278H9.58336C9.19933 10.278 8.88892 9.96694 8.88892 9.5836C8.88892 9.20027 9.19933 8.88916 9.58336 8.88916H30.4167C30.8007 8.88916 31.1111 9.20027 31.1111 9.5836C31.1111 9.96694 30.8007 10.278 30.4167 10.278Z" fill="#FAFAFA"/>
<path d="M30.4167 31.1111H9.58336C9.19933 31.1111 8.88892 30.7999 8.88892 30.4166C8.88892 30.0333 9.19933 29.7222 9.58336 29.7222H30.4167C30.8007 29.7222 31.1111 30.0333 31.1111 30.4166C31.1111 30.7999 30.8007 31.1111 30.4167 31.1111Z" fill="#FAFAFA"/>
<path d="M20 31.8057C19.2333 31.8057 18.6111 32.4279 18.6111 33.1946C18.6111 33.9612 19.2333 34.5834 20 34.5834C20.7666 34.5834 21.3889 33.9612 21.3889 33.1946C21.3889 32.4279 20.7666 31.8057 20 31.8057Z" fill="#FAFAFA"/>
<path d="M23.4723 7.50022H16.5278C16.1438 7.50022 15.8334 7.18911 15.8334 6.80577C15.8334 6.42244 16.1438 6.11133 16.5278 6.11133H23.4723C23.8563 6.11133 24.1667 6.42244 24.1667 6.80577C24.1667 7.18911 23.8563 7.50022 23.4723 7.50022Z" fill="#FAFAFA"/>
</g>
<defs>
<clipPath id="clip0_5266_1387">
<rect width="33.3333" height="33.3333" fill="white" transform="translate(3.33337 3.3335)"/>
</clipPath>
</defs>
</svg>
