<svg width="27" height="27" viewBox="0 0 27 27" fill="none" xmlns="http://www.w3.org/2000/svg">
<path d="M24 3H3L1.5 4.5V9H25.5V4.5L24 3Z" fill="white" fill-opacity="0.3"/>
<path d="M23.679 3.09839H3.46509C2.26897 3.09839 1.29932 4.08923 1.29932 5.3115V23.0164C1.29932 24.2387 2.26897 25.2295 3.46509 25.2295H23.679C24.8751 25.2295 25.8448 24.2387 25.8448 23.0164V5.3115C25.8448 4.08923 24.8751 3.09839 23.679 3.09839Z" stroke="white" stroke-opacity="0.3"/>
<path d="M1.5 9H25.5561" stroke="white" stroke-opacity="0.3" stroke-linecap="square"/>
<path d="M7.21909 1.69682C7.21909 1.65608 7.18677 1.62305 7.1469 1.62305C7.10703 1.62305 7.07471 1.65608 7.07471 1.69682V4.5001C7.07471 4.54084 7.10703 4.57387 7.1469 4.57387C7.18677 4.57387 7.21909 4.54084 7.21909 4.5001V1.69682Z" stroke="white" stroke-opacity="0.3"/>
<path d="M20.214 1.69682C20.214 1.65608 20.1816 1.62305 20.1418 1.62305C20.1019 1.62305 20.0696 1.65608 20.0696 1.69682V4.5001C20.0696 4.54084 20.1019 4.57387 20.1418 4.57387C20.1816 4.57387 20.214 4.54084 20.214 4.5001V1.69682Z" stroke="white" stroke-opacity="0.3"/>
<path d="M7.36348 12.6885H6.78594C6.14801 12.6885 5.63086 13.2169 5.63086 13.8688V14.459C5.63086 15.1108 6.14801 15.6393 6.78594 15.6393H7.36348C8.00141 15.6393 8.51856 15.1108 8.51856 14.459V13.8688C8.51856 13.2169 8.00141 12.6885 7.36348 12.6885Z" stroke="white" stroke-opacity="0.3"/>
<path d="M7.36348 18.5901H6.78594C6.14801 18.5901 5.63086 19.1185 5.63086 19.7704V20.3606C5.63086 21.0125 6.14801 21.5409 6.78594 21.5409H7.36348C8.00141 21.5409 8.51856 21.0125 8.51856 20.3606V19.7704C8.51856 19.1185 8.00141 18.5901 7.36348 18.5901Z" stroke="white" stroke-opacity="0.3"/>
<path d="M13.861 12.6885H13.2835C12.6456 12.6885 12.1284 13.2169 12.1284 13.8688V14.459C12.1284 15.1108 12.6456 15.6393 13.2835 15.6393H13.861C14.499 15.6393 15.0161 15.1108 15.0161 14.459V13.8688C15.0161 13.2169 14.499 12.6885 13.861 12.6885Z" stroke="white" stroke-opacity="0.3"/>
<path d="M13.861 18.5901H13.2835C12.6456 18.5901 12.1284 19.1185 12.1284 19.7704V20.3606C12.1284 21.0125 12.6456 21.5409 13.2835 21.5409H13.861C14.499 21.5409 15.0161 21.0125 15.0161 20.3606V19.7704C15.0161 19.1185 14.499 18.5901 13.861 18.5901Z" stroke="white" stroke-opacity="0.3"/>
<path d="M20.3581 12.6885H19.7806C19.1426 12.6885 18.6255 13.2169 18.6255 13.8688V14.459C18.6255 15.1108 19.1426 15.6393 19.7806 15.6393H20.3581C20.996 15.6393 21.5132 15.1108 21.5132 14.459V13.8688C21.5132 13.2169 20.996 12.6885 20.3581 12.6885Z" stroke="white" stroke-opacity="0.3"/>
<path d="M20.3581 18.5901H19.7806C19.1426 18.5901 18.6255 19.1185 18.6255 19.7704V20.3606C18.6255 21.0125 19.1426 21.5409 19.7806 21.5409H20.3581C20.996 21.5409 21.5132 21.0125 21.5132 20.3606V19.7704C21.5132 19.1185 20.996 18.5901 20.3581 18.5901Z" stroke="white" stroke-opacity="0.3"/>
</svg>
