<svg width="27" height="27" viewBox="0 0 27 27" fill="none" xmlns="http://www.w3.org/2000/svg">
<path d="M26.2059 12.3088C26.2069 11.4585 26.0256 10.6179 25.6742 9.84356C25.3228 9.06925 24.8095 8.37926 24.1689 7.82011C23.5283 7.26095 22.7753 6.84563 21.9605 6.60214C21.1458 6.35864 20.2884 6.29263 19.446 6.40855C19.3583 4.89099 18.6936 3.4644 17.5882 2.42101C16.4827 1.37761 15.0202 0.796387 13.5001 0.796387C11.98 0.796387 10.5174 1.37761 9.41195 2.42101C8.30649 3.4644 7.64183 4.89099 7.55411 6.40855C6.17977 6.222 4.78341 6.52093 3.60591 7.2538C2.4284 7.98666 1.54358 9.10749 1.10407 10.423C0.664564 11.7384 0.69793 13.166 1.19841 14.4595C1.6989 15.753 2.63512 16.8313 3.84558 17.5083C3.18343 18.7876 3.00733 20.2634 3.3499 21.6626C3.69247 23.0617 4.53049 24.2893 5.70875 25.1179C6.887 25.9465 8.32563 26.32 9.75818 26.1693C11.1907 26.0186 12.5201 25.3538 13.5001 24.298C14.48 25.3538 15.8094 26.0186 17.2419 26.1693C18.6745 26.32 20.1131 25.9465 21.2914 25.1179C22.4696 24.2893 23.3077 23.0617 23.6502 21.6626C23.9928 20.2634 23.8167 18.7876 23.1545 17.5083C24.0798 16.9915 24.8503 16.2372 25.3867 15.3232C25.9231 14.4092 26.2059 13.3686 26.2059 12.3088ZM22.7664 16.8155L22.0944 17.1917L22.4498 17.8746C22.833 18.6076 23.0319 19.4229 23.0295 20.25C23.0291 21.2874 22.7163 22.3005 22.1316 23.1574C21.547 24.0144 20.7177 24.6752 19.752 25.0539C18.7862 25.4326 17.7288 25.5115 16.7175 25.2803C15.7062 25.0492 14.7881 24.5187 14.0827 23.758L13.5001 23.1287L12.9174 23.757C12.2121 24.5176 11.294 25.0481 10.2829 25.2793C9.2717 25.5105 8.21433 25.4316 7.24862 25.0531C6.2829 24.6745 5.45363 24.0138 4.86892 23.1571C4.28421 22.3003 3.97118 21.2873 3.97065 20.25C3.96818 19.4229 4.16715 18.6076 4.55036 17.8746L4.90572 17.1917L4.2337 16.8155C3.18516 16.2287 2.37419 15.2944 1.94058 14.1738C1.50698 13.0532 1.4779 11.8164 1.85836 10.6767C2.23883 9.53694 3.00499 8.56563 4.0248 7.9302C5.0446 7.29476 6.25414 7.03501 7.44491 7.19572L8.29561 7.31086L8.34723 6.45223C8.42465 5.13807 9.00125 3.90315 9.95909 3.00008C10.9169 2.097 12.1836 1.59402 13.5001 1.59402C14.8165 1.59402 16.0832 2.097 17.041 3.00008C17.9989 3.90315 18.5755 5.13807 18.6529 6.45223L18.7015 7.30987L19.5552 7.19572C20.7463 7.03404 21.9565 7.29311 22.977 7.92824C23.9975 8.56337 24.7643 9.53474 25.1452 10.6748C25.5262 11.8148 25.4973 13.0521 25.0635 14.1731C24.6298 15.2941 23.8184 16.2287 22.7694 16.8155H22.7664Z" fill="white" fill-opacity="0.3"/>
<path d="M13.4999 10.125C12.6754 10.125 11.8693 10.3695 11.1837 10.8276C10.4981 11.2857 9.96372 11.9369 9.64817 12.6987C9.33262 13.4605 9.25005 14.2987 9.41092 15.1075C9.57179 15.9162 9.96886 16.6591 10.5519 17.2421C11.135 17.8252 11.8778 18.2223 12.6866 18.3831C13.4953 18.544 14.3336 18.4614 15.0954 18.1459C15.8572 17.8303 16.5083 17.296 16.9664 16.6104C17.4245 15.9247 17.669 15.1187 17.669 14.2941C17.669 13.1884 17.2298 12.128 16.4479 11.3461C15.6661 10.5642 14.6056 10.125 13.4999 10.125ZM13.4999 17.6691C12.8324 17.6691 12.1799 17.4712 11.6249 17.1003C11.0699 16.7295 10.6373 16.2024 10.3818 15.5857C10.1264 14.969 10.0596 14.2904 10.1898 13.6357C10.32 12.981 10.6414 12.3796 11.1134 11.9076C11.5854 11.4356 12.1868 11.1142 12.8415 10.984C13.4962 10.8537 14.1748 10.9206 14.7915 11.176C15.4082 11.4315 15.9353 11.8641 16.3061 12.4191C16.677 12.9741 16.8749 13.6266 16.8749 14.2941C16.8749 15.1892 16.5194 16.0477 15.8864 16.6806C15.2535 17.3135 14.395 17.6691 13.4999 17.6691Z" fill="white" fill-opacity="0.3"/>
</svg>
