<svg width="27" height="27" viewBox="0 0 27 27" fill="none" xmlns="http://www.w3.org/2000/svg">
<path d="M21.1305 14.3912C21.7788 14.3912 22.3044 14.1284 22.3044 13.8042C22.3044 13.4801 21.7788 13.2173 21.1305 13.2173C20.4821 13.2173 19.9565 13.4801 19.9565 13.8042C19.9565 14.1284 20.4821 14.3912 21.1305 14.3912Z" fill="white" fill-opacity="0.3"/>
<path d="M19.3697 13.2174C19.6938 13.2174 19.9566 12.9546 19.9566 12.6304C19.9566 12.3062 19.6938 12.0435 19.3697 12.0435C19.0455 12.0435 18.7827 12.3062 18.7827 12.6304C18.7827 12.9546 19.0455 13.2174 19.3697 13.2174Z" fill="white" fill-opacity="0.3"/>
<path d="M21.1305 12.0434C21.7788 12.0434 22.3044 11.5178 22.3044 10.8695C22.3044 10.2211 21.7788 9.69556 21.1305 9.69556C20.4821 9.69556 19.9565 10.2211 19.9565 10.8695C19.9565 11.5178 20.4821 12.0434 21.1305 12.0434Z" fill="white" fill-opacity="0.3"/>
<path d="M22.8914 13.2174C23.2156 13.2174 23.4784 12.9546 23.4784 12.6304C23.4784 12.3062 23.2156 12.0435 22.8914 12.0435C22.5672 12.0435 22.3044 12.3062 22.3044 12.6304C22.3044 12.9546 22.5672 13.2174 22.8914 13.2174Z" fill="white" fill-opacity="0.3"/>
<path d="M18.234 5H8.766C3.933 5 0 8.98705 0 13.8865V18.8072C0 20.9041 1.683 22.6087 3.75 22.6087C5.709 22.6087 7.5195 21.6826 8.5935 20.1301C9.714 18.5122 11.547 17.5451 13.5 17.5451C15.453 17.5451 17.286 18.5122 18.4065 20.1301C19.4805 21.6826 21.291 22.6087 23.25 22.6087C25.317 22.6087 27 20.9041 27 18.8072V13.8865C27 8.98705 23.067 5 18.234 5ZM25.5 18.8072C25.5 20.0647 24.4905 21.0881 23.25 21.0881C21.78 21.0881 20.427 20.4038 19.6335 19.2573C18.234 17.2333 15.9405 16.0244 13.5 16.0244C11.0595 16.0244 8.766 17.2333 7.3665 19.2573C6.573 20.4038 5.22 21.0881 3.75 21.0881C2.5095 21.0881 1.5 20.0647 1.5 18.8072V13.8865C1.5 9.8249 4.7595 6.52061 8.766 6.52061H18.2355C22.2405 6.52061 25.5 9.8249 25.5 13.8865V18.8072Z" fill="white" fill-opacity="0.3"/>
<path d="M8.6189 11.2711H7.81569V10.4679C7.81569 10.0416 7.4697 9.69556 7.04338 9.69556C6.61707 9.69556 6.27107 10.0416 6.27107 10.4679V11.2711H5.46787C5.04155 11.2711 4.69556 11.6171 4.69556 12.0434C4.69556 12.4697 5.04155 12.8157 5.46787 12.8157H6.27107V13.6189C6.27107 14.0452 6.61707 14.3912 7.04338 14.3912C7.4697 14.3912 7.81569 14.0452 7.81569 13.6189V12.8157H8.6189C9.04521 12.8157 9.39121 12.4697 9.39121 12.0434C9.39121 11.6171 9.04521 11.2711 8.6189 11.2711Z" fill="white" fill-opacity="0.3"/>
<path d="M15.5571 13.2173H11.4428C10.9584 13.2173 10.5652 13.4802 10.5652 13.8042C10.5652 14.1282 10.9584 14.3912 11.4428 14.3912H15.5571C16.0416 14.3912 16.4348 14.1282 16.4348 13.8042C16.4348 13.4802 16.0416 13.2173 15.5571 13.2173Z" fill="white" fill-opacity="0.3"/>
<path d="M15.5571 8.52173H11.4428C10.9584 8.52173 10.5652 8.78469 10.5652 9.10869C10.5652 9.43269 10.9584 9.69564 11.4428 9.69564H15.5571C16.0416 9.69564 16.4348 9.43269 16.4348 9.10869C16.4348 8.78469 16.0416 8.52173 15.5571 8.52173Z" fill="white" fill-opacity="0.3"/>
</svg>
