<svg width="40" height="40" viewBox="0 0 40 40" fill="none" xmlns="http://www.w3.org/2000/svg">
<g clip-path="url(#clip0_5266_1322)">
<path d="M36.4062 15.0127C36.3963 13.5996 35.9648 12.2216 35.1669 11.0552C34.3691 9.88887 33.2413 8.98715 31.928 8.46557C30.6146 7.94399 29.1755 7.82628 27.7948 8.12751C26.4142 8.42874 25.1549 9.1352 24.1781 10.1564H15.8219C14.8451 9.1352 13.5858 8.42874 12.2052 8.12751C10.8245 7.82628 9.38536 7.94399 8.072 8.46557C6.75865 8.98715 5.63086 9.88887 4.83305 11.0552C4.03524 12.2216 3.60372 13.5996 3.59375 15.0127C2.91136 19.3884 2.54582 23.8077 2.5 28.2361C2.5 30.883 3.59375 32.6111 5.69375 33.0049C6.08247 33.0845 6.47821 33.1248 6.875 33.1252C7.8138 33.1426 8.73212 32.8498 9.48754 32.2921C10.243 31.7344 10.7933 30.9431 11.0531 30.0408C11.4797 28.8377 12.2453 27.1752 12.7156 26.1689C13.297 26.4336 13.9293 26.5677 14.568 26.5619C15.2068 26.5561 15.8365 26.4104 16.413 26.1352C16.9894 25.86 17.4987 25.4619 17.9048 24.9689C18.311 24.4759 18.6043 23.8999 18.7641 23.2814H21.2359C21.396 23.8985 21.6891 24.4731 22.0945 24.9651C22.4999 25.457 23.008 25.8544 23.5831 26.1295C24.1582 26.4045 24.7864 26.5505 25.4239 26.5574C26.0613 26.5642 26.6926 26.4316 27.2734 26.1689C27.7437 27.1643 28.5094 28.8268 28.9359 30.0408C29.1963 30.9449 29.7482 31.7376 30.5059 32.2955C31.2635 32.8533 32.1843 33.145 33.125 33.1252C33.5254 33.1256 33.9249 33.0853 34.3172 33.0049C36.4063 32.5783 37.5 30.883 37.5 28.2361C37.4542 23.8077 37.0886 19.3884 36.4062 15.0127ZM10.0359 29.6799C9.91803 30.1016 9.71689 30.4955 9.44439 30.8383C9.17189 31.181 8.83353 31.4658 8.44925 31.6758C8.06497 31.8858 7.64255 32.0167 7.20688 32.0609C6.77121 32.105 6.3311 32.0616 5.9125 31.933C3.99844 31.5283 3.59375 29.7018 3.59375 28.2361C3.62001 24.8424 3.84644 21.4532 4.27188 18.0861C4.80294 19.2287 5.62724 20.2101 6.66086 20.9306C7.69448 21.651 8.90052 22.0848 10.1562 22.1877C10.1583 22.8412 10.3067 23.486 10.5906 24.0746C10.8745 24.6632 11.2867 25.1808 11.7969 25.5893C11.25 26.7049 10.4844 28.4002 10.0359 29.6799ZM14.5312 25.4689C13.661 25.4689 12.8264 25.1232 12.2111 24.5079C11.5957 23.8925 11.25 23.0579 11.25 22.1877C11.2383 22.0311 11.2383 21.8739 11.25 21.7174V21.0939H10.7031C9.36177 21.094 8.05888 20.6457 7.0015 19.8204C5.94412 18.995 5.19293 17.84 4.86729 16.5387C4.54164 15.2375 4.66024 13.8648 5.20423 12.6387C5.74822 11.4126 6.68639 10.4035 7.86965 9.7717C9.05292 9.13993 10.4134 8.92176 11.7349 9.15186C13.0563 9.38195 14.263 10.0471 15.1631 11.0416C16.0632 12.0361 16.6051 13.303 16.7026 14.6408C16.8002 15.9786 16.4478 17.3106 15.7016 18.4252L15.3516 18.9064L15.9312 19.1799C16.6301 19.4838 17.2014 20.0214 17.5471 20.7006C17.8928 21.3798 17.9913 22.1581 17.8257 22.902C17.6601 23.6458 17.2407 24.3089 16.6396 24.7773C16.0385 25.2457 15.293 25.4902 14.5312 25.4689ZM18.9062 22.1877C18.9056 21.4595 18.7232 20.7431 18.3755 20.1032C18.0279 19.4634 17.5261 18.9205 16.9156 18.5236C17.5433 17.4067 17.8565 16.1405 17.8218 14.8597C17.7871 13.579 17.4059 12.3316 16.7188 11.2502H23.2812C22.5873 12.3275 22.1985 13.5729 22.1561 14.8537C22.1138 16.1345 22.4194 17.4028 23.0406 18.5236C22.4382 18.9255 21.945 19.4707 21.6052 20.1102C21.2654 20.7497 21.0897 21.4635 21.0938 22.1877H18.9062ZM22.1875 22.1877C22.1891 21.565 22.3679 20.9556 22.703 20.4308C23.0381 19.9059 23.5155 19.4872 24.0797 19.2236L24.6484 18.9064L24.2984 18.3814C23.563 17.262 23.2222 15.9291 23.33 14.5941C23.4378 13.259 23.9881 11.9981 24.8937 11.0112C25.7992 10.0243 27.0083 9.36785 28.3292 9.14588C29.65 8.92391 31.0072 9.14912 32.1856 9.78582C33.364 10.4225 34.2963 11.4343 34.8345 12.6608C35.3728 13.8873 35.4864 15.2583 35.1572 16.5567C34.8281 17.855 34.075 19.0064 33.0174 19.8282C31.9598 20.6501 30.6582 21.0956 29.3188 21.0939H28.6187L28.75 21.7174C28.7617 21.8739 28.7617 22.0311 28.75 22.1877C28.75 23.0579 28.4043 23.8925 27.7889 24.5079C27.1736 25.1232 26.339 25.4689 25.4688 25.4689C24.5985 25.4689 23.7639 25.1232 23.1486 24.5079C22.5332 23.8925 22.1875 23.0579 22.1875 22.1877ZM34.0875 31.933C33.6689 32.0616 33.2288 32.105 32.7931 32.0609C32.3575 32.0167 31.935 31.8858 31.5508 31.6758C31.1665 31.4658 30.8281 31.181 30.5556 30.8383C30.2831 30.4955 30.082 30.1016 29.9641 29.6799C29.5156 28.4002 28.75 26.7049 28.2031 25.5893C28.7133 25.1808 29.1255 24.6632 29.4094 24.0746C29.6933 23.486 29.8417 22.8412 29.8438 22.1877C31.0975 22.088 32.3025 21.6579 33.3361 20.9413C34.3697 20.2247 35.195 19.2471 35.7281 18.108C36.1524 21.4678 36.3789 24.8497 36.4062 28.2361C36.4062 29.7018 36.0016 31.5283 34.0875 31.933Z" fill="#FAFAFA"/>
<path d="M12.3438 16.7188H14.5312V13.4375H12.3438V11.25H9.0625V13.4375H6.875V16.7188H9.0625V18.9062H12.3438V16.7188ZM11.25 17.8125H10.1562V15.625H7.96875V14.5312H10.1562V12.3438H11.25V14.5312H13.4375V15.625H11.25V17.8125Z" fill="#FAFAFA"/>
<path d="M29.2969 13.4375C29.6214 13.4375 29.9386 13.3413 30.2084 13.161C30.4782 12.9807 30.6884 12.7245 30.8126 12.4247C30.9368 12.1249 30.9693 11.7951 30.906 11.4768C30.8427 11.1586 30.6864 10.8662 30.457 10.6368C30.2275 10.4073 29.9352 10.2511 29.6169 10.1878C29.2987 10.1245 28.9688 10.157 28.669 10.2811C28.3693 10.4053 28.113 10.6156 27.9327 10.8854C27.7525 11.1552 27.6562 11.4724 27.6562 11.7969C27.6562 12.232 27.8291 12.6493 28.1368 12.957C28.4445 13.2646 28.8618 13.4375 29.2969 13.4375ZM29.2969 11.25C29.405 11.25 29.5108 11.2821 29.6007 11.3422C29.6906 11.4023 29.7607 11.4877 29.8021 11.5876C29.8435 11.6875 29.8543 11.7975 29.8332 11.9036C29.8121 12.0096 29.7601 12.1071 29.6836 12.1836C29.6071 12.2601 29.5096 12.3121 29.4036 12.3332C29.2975 12.3543 29.1875 12.3435 29.0876 12.3021C28.9877 12.2607 28.9023 12.1906 28.8422 12.1007C28.7821 12.0108 28.75 11.905 28.75 11.7969C28.75 11.6518 28.8076 11.5127 28.9102 11.4102C29.0127 11.3076 29.1518 11.25 29.2969 11.25Z" fill="#FAFAFA"/>
<path d="M29.2969 20C29.6214 20 29.9386 19.9038 30.2084 19.7235C30.4782 19.5432 30.6884 19.287 30.8126 18.9872C30.9368 18.6874 30.9693 18.3576 30.906 18.0393C30.8427 17.7211 30.6864 17.4287 30.457 17.1993C30.2275 16.9698 29.9352 16.8136 29.6169 16.7503C29.2987 16.687 28.9688 16.7195 28.669 16.8436C28.3693 16.9678 28.113 17.1781 27.9327 17.4479C27.7525 17.7177 27.6562 18.0349 27.6562 18.3594C27.6562 18.7945 27.8291 19.2118 28.1368 19.5195C28.4445 19.8271 28.8618 20 29.2969 20ZM29.2969 17.8125C29.405 17.8125 29.5108 17.8446 29.6007 17.9047C29.6906 17.9648 29.7607 18.0502 29.8021 18.1501C29.8435 18.25 29.8543 18.36 29.8332 18.4661C29.8121 18.5721 29.7601 18.6696 29.6836 18.7461C29.6071 18.8226 29.5096 18.8746 29.4036 18.8957C29.2975 18.9168 29.1875 18.906 29.0876 18.8646C28.9877 18.8232 28.9023 18.7531 28.8422 18.6632C28.7821 18.5733 28.75 18.4675 28.75 18.3594C28.75 18.2143 28.8076 18.0752 28.9102 17.9727C29.0127 17.8701 29.1518 17.8125 29.2969 17.8125Z" fill="#FAFAFA"/>
<path d="M26.0156 16.7188C26.3401 16.7188 26.6573 16.6225 26.9271 16.4423C27.1969 16.262 27.4072 16.0058 27.5314 15.706C27.6555 15.4062 27.688 15.0763 27.6247 14.7581C27.5614 14.4398 27.4052 14.1475 27.1757 13.918C26.9463 13.6886 26.6539 13.5323 26.3357 13.469C26.0174 13.4057 25.6876 13.4382 25.3878 13.5624C25.088 13.6866 24.8318 13.8968 24.6515 14.1666C24.4712 14.4364 24.375 14.7536 24.375 15.0781C24.375 15.5132 24.5479 15.9305 24.8555 16.2382C25.1632 16.5459 25.5805 16.7188 26.0156 16.7188ZM26.0156 14.5313C26.1238 14.5313 26.2295 14.5633 26.3195 14.6234C26.4094 14.6835 26.4795 14.7689 26.5209 14.8688C26.5623 14.9688 26.5731 15.0787 26.552 15.1848C26.5309 15.2909 26.4788 15.3883 26.4023 15.4648C26.3258 15.5413 26.2284 15.5934 26.1223 15.6145C26.0162 15.6356 25.9063 15.6248 25.8063 15.5834C25.7064 15.542 25.621 15.4719 25.5609 15.382C25.5008 15.292 25.4688 15.1863 25.4688 15.0781C25.4688 14.9331 25.5264 14.794 25.6289 14.6914C25.7315 14.5889 25.8706 14.5313 26.0156 14.5313Z" fill="#FAFAFA"/>
<path d="M32.5781 16.7188C32.9026 16.7188 33.2198 16.6225 33.4896 16.4423C33.7594 16.262 33.9697 16.0058 34.0939 15.706C34.218 15.4062 34.2505 15.0763 34.1872 14.7581C34.1239 14.4398 33.9677 14.1475 33.7382 13.918C33.5088 13.6886 33.2164 13.5323 32.8982 13.469C32.5799 13.4057 32.2501 13.4382 31.9503 13.5624C31.6505 13.6866 31.3943 13.8968 31.214 14.1666C31.0337 14.4364 30.9375 14.7536 30.9375 15.0781C30.9375 15.5132 31.1104 15.9305 31.418 16.2382C31.7257 16.5459 32.143 16.7188 32.5781 16.7188ZM32.5781 14.5313C32.6863 14.5313 32.792 14.5633 32.882 14.6234C32.9719 14.6835 33.042 14.7689 33.0834 14.8688C33.1248 14.9688 33.1356 15.0787 33.1145 15.1848C33.0934 15.2909 33.0413 15.3883 32.9648 15.4648C32.8883 15.5413 32.7909 15.5934 32.6848 15.6145C32.5787 15.6356 32.4688 15.6248 32.3688 15.5834C32.2689 15.542 32.1835 15.4719 32.1234 15.382C32.0633 15.292 32.0312 15.1863 32.0312 15.0781C32.0312 14.9331 32.0889 14.794 32.1914 14.6914C32.294 14.5889 32.4331 14.5313 32.5781 14.5313Z" fill="#FAFAFA"/>
<path d="M14.5313 20C14.0986 20 13.6757 20.1283 13.3159 20.3687C12.9562 20.609 12.6758 20.9507 12.5103 21.3504C12.3447 21.7501 12.3014 22.1899 12.3858 22.6143C12.4702 23.0386 12.6785 23.4284 12.9845 23.7343C13.2904 24.0402 13.6802 24.2486 14.1045 24.333C14.5288 24.4174 14.9687 24.3741 15.3684 24.2085C15.7681 24.0429 16.1097 23.7625 16.3501 23.4028C16.5905 23.0431 16.7188 22.6201 16.7188 22.1875C16.7188 21.6073 16.4883 21.0509 16.078 20.6407C15.6678 20.2305 15.1114 20 14.5313 20ZM14.5313 23.2812C14.3149 23.2812 14.1035 23.2171 13.9236 23.0969C13.7437 22.9767 13.6035 22.8059 13.5208 22.6061C13.438 22.4062 13.4163 22.1863 13.4585 21.9741C13.5007 21.762 13.6049 21.5671 13.7579 21.4141C13.9108 21.2611 14.1057 21.157 14.3179 21.1148C14.53 21.0726 14.75 21.0942 14.9498 21.177C15.1497 21.2598 15.3205 21.4 15.4407 21.5798C15.5609 21.7597 15.625 21.9712 15.625 22.1875C15.625 22.4776 15.5098 22.7558 15.3046 22.9609C15.0995 23.166 14.8213 23.2812 14.5313 23.2812Z" fill="#FAFAFA"/>
<path d="M25.4688 20C25.0361 20 24.6132 20.1283 24.2534 20.3687C23.8937 20.609 23.6133 20.9507 23.4478 21.3504C23.2822 21.7501 23.2389 22.1899 23.3233 22.6143C23.4077 23.0386 23.616 23.4284 23.922 23.7343C24.2279 24.0402 24.6177 24.2486 25.042 24.333C25.4663 24.4174 25.9062 24.3741 26.3059 24.2085C26.7056 24.0429 27.0472 23.7625 27.2876 23.4028C27.528 23.0431 27.6563 22.6201 27.6563 22.1875C27.6563 21.6073 27.4258 21.0509 27.0155 20.6407C26.6053 20.2305 26.0489 20 25.4688 20ZM25.4688 23.2812C25.2524 23.2812 25.041 23.2171 24.8611 23.0969C24.6812 22.9767 24.541 22.8059 24.4583 22.6061C24.3755 22.4062 24.3538 22.1863 24.396 21.9741C24.4382 21.762 24.5424 21.5671 24.6954 21.4141C24.8483 21.2611 25.0432 21.157 25.2554 21.1148C25.4675 21.0726 25.6875 21.0942 25.8873 21.177C26.0872 21.2598 26.258 21.4 26.3782 21.5798C26.4984 21.7597 26.5625 21.9712 26.5625 22.1875C26.5625 22.4776 26.4473 22.7558 26.2422 22.9609C26.037 23.166 25.7588 23.2812 25.4688 23.2812Z" fill="#FAFAFA"/>
</g>
<defs>
<clipPath id="clip0_5266_1322">
<rect width="35" height="35" fill="white" transform="translate(2.5 2.5)"/>
</clipPath>
</defs>
</svg>
