<svg width="40" height="40" viewBox="0 0 40 40" fill="none" xmlns="http://www.w3.org/2000/svg">
<g clip-path="url(#clip0_5266_1354)">
<path d="M36.1459 20.0002H29.375V7.40433C29.6786 7.29699 29.9417 7.09848 30.1281 6.83594C30.3146 6.57341 30.4154 6.25967 30.4167 5.93766V4.896C30.4167 4.4816 30.2521 4.08417 29.9591 3.79114C29.666 3.49812 29.2686 3.3335 28.8542 3.3335H11.1459C10.7315 3.3335 10.334 3.49812 10.041 3.79114C9.74799 4.08417 9.58337 4.4816 9.58337 4.896V5.93766C9.58471 6.25967 9.6855 6.57341 9.87196 6.83594C10.0584 7.09848 10.3214 7.29699 10.625 7.40433V14.271C10.625 14.4091 10.6799 14.5416 10.7776 14.6393C10.8753 14.737 11.0077 14.7918 11.1459 14.7918C11.284 14.7918 11.4165 14.737 11.5142 14.6393C11.6118 14.5416 11.6667 14.4091 11.6667 14.271V7.50016H24.6875C24.8257 7.50016 24.9581 7.44529 25.0558 7.34761C25.1535 7.24994 25.2084 7.11746 25.2084 6.97933C25.2084 6.8412 25.1535 6.70872 25.0558 6.61104C24.9581 6.51337 24.8257 6.4585 24.6875 6.4585H11.1459C11.0077 6.4585 10.8753 6.40362 10.7776 6.30595C10.6799 6.20827 10.625 6.0758 10.625 5.93766V4.896C10.625 4.75786 10.6799 4.62539 10.7776 4.52771C10.8753 4.43004 11.0077 4.37516 11.1459 4.37516H28.8542C28.9923 4.37516 29.1248 4.43004 29.2225 4.52771C29.3202 4.62539 29.375 4.75786 29.375 4.896V5.93766C29.375 6.0758 29.3202 6.20827 29.2225 6.30595C29.1248 6.40362 28.9923 6.4585 28.8542 6.4585H26.7709C26.6327 6.4585 26.5003 6.51337 26.4026 6.61104C26.3049 6.70872 26.25 6.8412 26.25 6.97933C26.25 7.11746 26.3049 7.24994 26.4026 7.34761C26.5003 7.44529 26.6327 7.50016 26.7709 7.50016H28.3334V35.6252H23.125V33.021C23.125 32.8829 23.0702 32.7504 22.9725 32.6527C22.8748 32.555 22.7423 32.5002 22.6042 32.5002H17.3959C17.2577 32.5002 17.1253 32.555 17.0276 32.6527C16.9299 32.7504 16.875 32.8829 16.875 33.021V35.6252H11.6667V16.3543C11.6667 16.2162 11.6118 16.0837 11.5142 15.986C11.4165 15.8884 11.284 15.8335 11.1459 15.8335C11.0077 15.8335 10.8753 15.8884 10.7776 15.986C10.6799 16.0837 10.625 16.2162 10.625 16.3543V20.0002H3.85421C3.71607 20.0002 3.5836 20.055 3.48592 20.1527C3.38825 20.2504 3.33337 20.3829 3.33337 20.521V36.146C3.33337 36.2841 3.38825 36.4166 3.48592 36.5143C3.5836 36.612 3.71607 36.6668 3.85421 36.6668H36.1459C36.284 36.6668 36.4165 36.612 36.5142 36.5143C36.6118 36.4166 36.6667 36.2841 36.6667 36.146V20.521C36.6667 20.3829 36.6118 20.2504 36.5142 20.1527C36.4165 20.055 36.284 20.0002 36.1459 20.0002ZM4.37504 21.0418H10.625V35.6252H4.37504V21.0418ZM17.9167 33.5418H19.4792V35.6252H17.9167V33.5418ZM20.5209 35.6252V33.5418H22.0834V35.6252H20.5209ZM35.625 35.6252H29.375V21.0418H35.625V35.6252Z" fill="#FAFAFA"/>
<path d="M21.0417 8.54199H18.9583C18.8202 8.54199 18.6877 8.59687 18.59 8.69454C18.4924 8.79222 18.4375 8.92469 18.4375 9.06283V10.1045H17.3958C17.2577 10.1045 17.1252 10.1594 17.0275 10.257C16.9299 10.3547 16.875 10.4872 16.875 10.6253V12.7087C16.875 12.8468 16.9299 12.9793 17.0275 13.0769C17.1252 13.1746 17.2577 13.2295 17.3958 13.2295H18.4375V14.2712C18.4375 14.4093 18.4924 14.5418 18.59 14.6394C18.6877 14.7371 18.8202 14.792 18.9583 14.792H21.0417C21.1798 14.792 21.3123 14.7371 21.41 14.6394C21.5076 14.5418 21.5625 14.4093 21.5625 14.2712V13.2295H22.6042C22.7423 13.2295 22.8748 13.1746 22.9725 13.0769C23.0701 12.9793 23.125 12.8468 23.125 12.7087V10.6253C23.125 10.4872 23.0701 10.3547 22.9725 10.257C22.8748 10.1594 22.7423 10.1045 22.6042 10.1045H21.5625V9.06283C21.5625 8.92469 21.5076 8.79222 21.41 8.69454C21.3123 8.59687 21.1798 8.54199 21.0417 8.54199ZM22.0833 11.1462V12.1878H21.0417C20.9035 12.1878 20.7711 12.2427 20.6734 12.3404C20.5757 12.438 20.5208 12.5705 20.5208 12.7087V13.7503H19.4792V12.7087C19.4792 12.5705 19.4243 12.438 19.3266 12.3404C19.2289 12.2427 19.0965 12.1878 18.9583 12.1878H17.9167V11.1462H18.9583C19.0965 11.1462 19.2289 11.0913 19.3266 10.9936C19.4243 10.8959 19.4792 10.7635 19.4792 10.6253V9.58366H20.5208V10.6253C20.5208 10.7635 20.5757 10.8959 20.6734 10.9936C20.7711 11.0913 20.9035 11.1462 21.0417 11.1462H22.0833Z" fill="#FAFAFA"/>
<path d="M13.2292 18.9585H15.3125C15.4507 18.9585 15.5832 18.9036 15.6808 18.8059C15.7785 18.7083 15.8334 18.5758 15.8334 18.4377V16.3543C15.8334 16.2162 15.7785 16.0837 15.6808 15.986C15.5832 15.8884 15.4507 15.8335 15.3125 15.8335H13.2292C13.0911 15.8335 12.9586 15.8884 12.8609 15.986C12.7632 16.0837 12.7084 16.2162 12.7084 16.3543V18.4377C12.7084 18.5758 12.7632 18.7083 12.8609 18.8059C12.9586 18.9036 13.0911 18.9585 13.2292 18.9585ZM13.75 16.8752H14.7917V17.9168H13.75V16.8752Z" fill="#FAFAFA"/>
<path d="M21.5625 16.3543C21.5625 16.2162 21.5076 16.0837 21.41 15.986C21.3123 15.8884 21.1798 15.8335 21.0417 15.8335H18.9583C18.8202 15.8335 18.6877 15.8884 18.59 15.986C18.4924 16.0837 18.4375 16.2162 18.4375 16.3543V18.4377C18.4375 18.5758 18.4924 18.7083 18.59 18.8059C18.6877 18.9036 18.8202 18.9585 18.9583 18.9585H21.0417C21.1798 18.9585 21.3123 18.9036 21.41 18.8059C21.5076 18.7083 21.5625 18.5758 21.5625 18.4377V16.3543ZM20.5208 17.9168H19.4792V16.8752H20.5208V17.9168Z" fill="#FAFAFA"/>
<path d="M24.6876 18.9585H26.7709C26.909 18.9585 27.0415 18.9036 27.1392 18.8059C27.2369 18.7083 27.2917 18.5758 27.2917 18.4377V16.3543C27.2917 16.2162 27.2369 16.0837 27.1392 15.986C27.0415 15.8884 26.909 15.8335 26.7709 15.8335H24.6876C24.5494 15.8335 24.417 15.8884 24.3193 15.986C24.2216 16.0837 24.1667 16.2162 24.1667 16.3543V18.4377C24.1667 18.5758 24.2216 18.7083 24.3193 18.8059C24.417 18.9036 24.5494 18.9585 24.6876 18.9585ZM25.2084 16.8752H26.2501V17.9168H25.2084V16.8752Z" fill="#FAFAFA"/>
<path d="M12.7084 22.6042C12.7084 22.7423 12.7632 22.8748 12.8609 22.9725C12.9586 23.0701 13.0911 23.125 13.2292 23.125H15.3125C15.4507 23.125 15.5832 23.0701 15.6808 22.9725C15.7785 22.8748 15.8334 22.7423 15.8334 22.6042V20.5208C15.8334 20.3827 15.7785 20.2502 15.6808 20.1525C15.5832 20.0549 15.4507 20 15.3125 20H13.2292C13.0911 20 12.9586 20.0549 12.8609 20.1525C12.7632 20.2502 12.7084 20.3827 12.7084 20.5208V22.6042ZM13.75 21.0417H14.7917V22.0833H13.75V21.0417Z" fill="#FAFAFA"/>
<path d="M21.5625 20.5208C21.5625 20.3827 21.5076 20.2502 21.41 20.1525C21.3123 20.0549 21.1798 20 21.0417 20H18.9583C18.8202 20 18.6877 20.0549 18.59 20.1525C18.4924 20.2502 18.4375 20.3827 18.4375 20.5208V22.6042C18.4375 22.7423 18.4924 22.8748 18.59 22.9725C18.6877 23.0701 18.8202 23.125 18.9583 23.125H21.0417C21.1798 23.125 21.3123 23.0701 21.41 22.9725C21.5076 22.8748 21.5625 22.7423 21.5625 22.6042V20.5208ZM20.5208 22.0833H19.4792V21.0417H20.5208V22.0833Z" fill="#FAFAFA"/>
<path d="M24.1667 22.6042C24.1667 22.7423 24.2216 22.8748 24.3193 22.9725C24.417 23.0701 24.5494 23.125 24.6876 23.125H26.7709C26.909 23.125 27.0415 23.0701 27.1392 22.9725C27.2369 22.8748 27.2917 22.7423 27.2917 22.6042V20.5208C27.2917 20.3827 27.2369 20.2502 27.1392 20.1525C27.0415 20.0549 26.909 20 26.7709 20H24.6876C24.5494 20 24.417 20.0549 24.3193 20.1525C24.2216 20.2502 24.1667 20.3827 24.1667 20.5208V22.6042ZM25.2084 21.0417H26.2501V22.0833H25.2084V21.0417Z" fill="#FAFAFA"/>
<path d="M12.7084 26.7712C12.7084 26.9093 12.7632 27.0418 12.8609 27.1394C12.9586 27.2371 13.0911 27.292 13.2292 27.292H15.3125C15.4507 27.292 15.5832 27.2371 15.6808 27.1394C15.7785 27.0418 15.8334 26.9093 15.8334 26.7712V24.6878C15.8334 24.5497 15.7785 24.4172 15.6808 24.3195C15.5832 24.2219 15.4507 24.167 15.3125 24.167H13.2292C13.0911 24.167 12.9586 24.2219 12.8609 24.3195C12.7632 24.4172 12.7084 24.5497 12.7084 24.6878V26.7712ZM13.75 25.2087H14.7917V26.2503H13.75V25.2087Z" fill="#FAFAFA"/>
<path d="M8.54167 22.0835H6.45833C6.3202 22.0835 6.18772 22.1384 6.09005 22.236C5.99237 22.3337 5.9375 22.4662 5.9375 22.6043V24.6877C5.9375 24.8258 5.99237 24.9583 6.09005 25.0559C6.18772 25.1536 6.3202 25.2085 6.45833 25.2085H8.54167C8.6798 25.2085 8.81228 25.1536 8.90995 25.0559C9.00763 24.9583 9.0625 24.8258 9.0625 24.6877V22.6043C9.0625 22.4662 9.00763 22.3337 8.90995 22.236C8.81228 22.1384 8.6798 22.0835 8.54167 22.0835ZM8.02083 24.1668H6.97917V23.1252H8.02083V24.1668Z" fill="#FAFAFA"/>
<path d="M8.54167 26.25H6.45833C6.3202 26.25 6.18772 26.3049 6.09005 26.4025C5.99237 26.5002 5.9375 26.6327 5.9375 26.7708V28.8542C5.9375 28.9923 5.99237 29.1248 6.09005 29.2225C6.18772 29.3201 6.3202 29.375 6.45833 29.375H8.54167C8.6798 29.375 8.81228 29.3201 8.90995 29.2225C9.00763 29.1248 9.0625 28.9923 9.0625 28.8542V26.7708C9.0625 26.6327 9.00763 26.5002 8.90995 26.4025C8.81228 26.3049 8.6798 26.25 8.54167 26.25ZM8.02083 28.3333H6.97917V27.2917H8.02083V28.3333Z" fill="#FAFAFA"/>
<path d="M8.54167 30.417H6.45833C6.3202 30.417 6.18772 30.4719 6.09005 30.5695C5.99237 30.6672 5.9375 30.7997 5.9375 30.9378V33.0212C5.9375 33.1593 5.99237 33.2918 6.09005 33.3894C6.18772 33.4871 6.3202 33.542 6.45833 33.542H8.54167C8.6798 33.542 8.81228 33.4871 8.90995 33.3894C9.00763 33.2918 9.0625 33.1593 9.0625 33.0212V30.9378C9.0625 30.7997 9.00763 30.6672 8.90995 30.5695C8.81228 30.4719 8.6798 30.417 8.54167 30.417ZM8.02083 32.5003H6.97917V31.4587H8.02083V32.5003Z" fill="#FAFAFA"/>
<path d="M31.4583 25.2085H33.5417C33.6798 25.2085 33.8123 25.1536 33.91 25.0559C34.0076 24.9583 34.0625 24.8258 34.0625 24.6877V22.6043C34.0625 22.4662 34.0076 22.3337 33.91 22.236C33.8123 22.1384 33.6798 22.0835 33.5417 22.0835H31.4583C31.3202 22.0835 31.1877 22.1384 31.09 22.236C30.9924 22.3337 30.9375 22.4662 30.9375 22.6043V24.6877C30.9375 24.8258 30.9924 24.9583 31.09 25.0559C31.1877 25.1536 31.3202 25.2085 31.4583 25.2085ZM31.9792 23.1252H33.0208V24.1668H31.9792V23.1252Z" fill="#FAFAFA"/>
<path d="M31.4583 29.375H33.5417C33.6798 29.375 33.8123 29.3201 33.91 29.2225C34.0076 29.1248 34.0625 28.9923 34.0625 28.8542V26.7708C34.0625 26.6327 34.0076 26.5002 33.91 26.4025C33.8123 26.3049 33.6798 26.25 33.5417 26.25H31.4583C31.3202 26.25 31.1877 26.3049 31.09 26.4025C30.9924 26.5002 30.9375 26.6327 30.9375 26.7708V28.8542C30.9375 28.9923 30.9924 29.1248 31.09 29.2225C31.1877 29.3201 31.3202 29.375 31.4583 29.375ZM31.9792 27.2917H33.0208V28.3333H31.9792V27.2917Z" fill="#FAFAFA"/>
<path d="M31.4583 33.542H33.5417C33.6798 33.542 33.8123 33.4871 33.91 33.3894C34.0076 33.2918 34.0625 33.1593 34.0625 33.0212V30.9378C34.0625 30.7997 34.0076 30.6672 33.91 30.5695C33.8123 30.4719 33.6798 30.417 33.5417 30.417H31.4583C31.3202 30.417 31.1877 30.4719 31.09 30.5695C30.9924 30.6672 30.9375 30.7997 30.9375 30.9378V33.0212C30.9375 33.1593 30.9924 33.2918 31.09 33.3894C31.1877 33.4871 31.3202 33.542 31.4583 33.542ZM31.9792 31.4587H33.0208V32.5003H31.9792V31.4587Z" fill="#FAFAFA"/>
<path d="M21.5625 24.6878C21.5625 24.5497 21.5076 24.4172 21.41 24.3195C21.3123 24.2219 21.1798 24.167 21.0417 24.167H18.9583C18.8202 24.167 18.6877 24.2219 18.59 24.3195C18.4924 24.4172 18.4375 24.5497 18.4375 24.6878V26.7712C18.4375 26.9093 18.4924 27.0418 18.59 27.1394C18.6877 27.2371 18.8202 27.292 18.9583 27.292H21.0417C21.1798 27.292 21.3123 27.2371 21.41 27.1394C21.5076 27.0418 21.5625 26.9093 21.5625 26.7712V24.6878ZM20.5208 26.2503H19.4792V25.2087H20.5208V26.2503Z" fill="#FAFAFA"/>
<path d="M24.1667 26.7712C24.1667 26.9093 24.2216 27.0418 24.3193 27.1394C24.417 27.2371 24.5494 27.292 24.6876 27.292H26.7709C26.909 27.292 27.0415 27.2371 27.1392 27.1394C27.2369 27.0418 27.2917 26.9093 27.2917 26.7712V24.6878C27.2917 24.5497 27.2369 24.4172 27.1392 24.3195C27.0415 24.2219 26.909 24.167 26.7709 24.167H24.6876C24.5494 24.167 24.417 24.2219 24.3193 24.3195C24.2216 24.4172 24.1667 24.5497 24.1667 24.6878V26.7712ZM25.2084 25.2087H26.2501V26.2503H25.2084V25.2087Z" fill="#FAFAFA"/>
<path d="M12.7084 30.9377C12.7084 31.0758 12.7632 31.2083 12.8609 31.3059C12.9586 31.4036 13.0911 31.4585 13.2292 31.4585H15.3125C15.4507 31.4585 15.5832 31.4036 15.6808 31.3059C15.7785 31.2083 15.8334 31.0758 15.8334 30.9377V28.8543C15.8334 28.7162 15.7785 28.5837 15.6808 28.486C15.5832 28.3884 15.4507 28.3335 15.3125 28.3335H13.2292C13.0911 28.3335 12.9586 28.3884 12.8609 28.486C12.7632 28.5837 12.7084 28.7162 12.7084 28.8543V30.9377ZM13.75 29.3752H14.7917V30.4168H13.75V29.3752Z" fill="#FAFAFA"/>
<path d="M21.0417 28.3335H18.9583C18.8202 28.3335 18.6877 28.3884 18.59 28.486C18.4924 28.5837 18.4375 28.7162 18.4375 28.8543V30.9377C18.4375 31.0758 18.4924 31.2083 18.59 31.3059C18.6877 31.4036 18.8202 31.4585 18.9583 31.4585H21.0417C21.1798 31.4585 21.3123 31.4036 21.41 31.3059C21.5076 31.2083 21.5625 31.0758 21.5625 30.9377V28.8543C21.5625 28.7162 21.5076 28.5837 21.41 28.486C21.3123 28.3884 21.1798 28.3335 21.0417 28.3335ZM20.5208 30.4168H19.4792V29.3752H20.5208V30.4168Z" fill="#FAFAFA"/>
<path d="M24.1667 30.9377C24.1667 31.0758 24.2216 31.2083 24.3193 31.3059C24.417 31.4036 24.5494 31.4585 24.6876 31.4585H26.7709C26.909 31.4585 27.0415 31.4036 27.1392 31.3059C27.2369 31.2083 27.2917 31.0758 27.2917 30.9377V28.8543C27.2917 28.7162 27.2369 28.5837 27.1392 28.486C27.0415 28.3884 26.909 28.3335 26.7709 28.3335H24.6876C24.5494 28.3335 24.417 28.3884 24.3193 28.486C24.2216 28.5837 24.1667 28.7162 24.1667 28.8543V30.9377ZM25.2084 29.3752H26.2501V30.4168H25.2084V29.3752Z" fill="#FAFAFA"/>
</g>
<defs>
<clipPath id="clip0_5266_1354">
<rect width="33.3333" height="33.3333" fill="white" transform="translate(3.33337 3.3335)"/>
</clipPath>
</defs>
</svg>
