<svg width="28" height="28" viewBox="0 0 28 28" fill="none" xmlns="http://www.w3.org/2000/svg">
<path d="M5.503 8.726C7.268 5.89 10.414 4 13.998 4C19.516 4 23.995 8.48 23.995 13.997C23.995 19.516 19.516 23.996 13.998 23.996C8.753 23.996 4.445 19.948 4.032 14.808C4.008 14.506 4.221 13.997 4.781 13.997C5.172 13.997 5.496 14.297 5.528 14.687C5.879 19.056 9.54 22.496 13.998 22.496C18.688 22.496 22.495 18.688 22.495 13.997C22.495 9.308 18.688 5.5 13.998 5.5C10.961 5.5 8.294 7.097 6.792 9.495L8.783 9.5C9.197 9.5 9.533 9.836 9.533 10.25C9.533 10.664 9.197 11 8.783 11H4.75C4.336 11 4 10.664 4 10.25V6.201C4 5.787 4.336 5.451 4.75 5.451C5.164 5.451 5.5 5.786 5.5 6.201L5.503 8.726ZM12.99 8.747L12.997 14.31C12.997 14.598 13.162 14.86 13.421 14.985L17.399 16.913C17.772 17.093 18.22 16.937 18.4 16.564C18.58 16.191 18.424 15.743 18.051 15.563L14.496 13.838L14.49 8.745C14.49 8.331 14.153 7.996 13.74 7.996C13.326 7.996 12.99 8.333 12.99 8.747Z" fill="#FAFAFA"/>
</svg>
