<svg width="40" height="40" viewBox="0 0 40 40" fill="none" xmlns="http://www.w3.org/2000/svg">
<g clip-path="url(#clip0_5266_1296)">
<path fill-rule="evenodd" clip-rule="evenodd" d="M27.2013 18.1139C25.6863 18.1239 24.53 17.9564 23.5788 19.1752L20.5488 22.9577L19.755 21.9452L22.5963 18.3989C23.5363 17.1952 23.0963 16.0952 22.7525 14.6302C22.4175 13.2102 23.18 12.6252 23.74 12.0439L29.4988 16.5427C29.0663 17.2489 28.7063 18.1039 27.2013 18.1139ZM26.49 33.6214C26.335 33.7427 25.9013 33.8827 25.6125 33.5139L15.3375 20.5314L13.0388 22.3277C9.29376 15.9102 6.25751 8.71268 6.16501 6.68893L26.5988 32.7439C26.8113 33.0164 26.7625 33.4089 26.49 33.6214ZM12.0875 33.5039C11.875 33.7752 11.4813 33.8227 11.205 33.6077C10.9325 33.3927 10.8888 33.0052 11.1013 32.7327L17.2963 25.0177L18.095 26.0227L12.0875 33.5039ZM34.1263 9.05393L30.1725 15.4864L28.8538 14.4527L33.4688 8.54018L32.4838 7.77018L27.8663 13.6814L26.8775 12.9089L31.4988 7.00018L30.5125 6.23143L25.89 12.1377L24.6188 11.1439L29.8225 5.69518L28.9288 4.99268C28.9288 4.99268 24.4513 9.48643 22.25 11.7914C21.48 12.5989 21.28 13.8277 21.5363 14.9164C21.8825 16.3877 22.1425 16.9489 21.6113 17.6289L18.9625 20.9377C13.4363 13.9039 7.43001 6.26768 6.77751 5.44643C6.55126 5.16143 6.24251 5.01643 5.93626 5.01643C4.90626 5.01643 5.01251 6.20643 5.01251 6.24018C5.01251 9.25893 8.74376 17.7302 12.6913 24.1814L15.12 22.2827L16.4975 24.0139L10.1163 31.9639C9.47876 32.7789 9.61751 33.9527 10.4363 34.5927C10.7813 34.8614 11.19 34.9927 11.595 34.9927C12.1525 34.9927 12.7038 34.7452 13.0725 34.2727L18.8925 27.0252L24.6288 34.2827C24.9788 34.7327 25.4475 34.9514 25.9175 34.9927C26.4088 35.0364 26.9013 34.8877 27.26 34.6064C28.0763 33.9689 28.2213 32.7902 27.5838 31.9739C26.3825 30.4352 24.0513 27.4164 21.3425 23.9664L24.5638 19.9439C25.1038 19.2527 25.6963 19.3727 27.21 19.3639C28.345 19.3564 29.5288 18.8689 30.1275 17.9052C31.8125 15.1864 35 9.73643 35 9.73643L34.1263 9.05393Z" fill="#FAFAFA"/>
</g>
<defs>
<clipPath id="clip0_5266_1296">
<rect width="30" height="30" fill="white" transform="translate(5 5)"/>
</clipPath>
</defs>
</svg>
