<svg width="40" height="40" viewBox="0 0 40 40" fill="none" xmlns="http://www.w3.org/2000/svg">
<g clip-path="url(#clip0_5266_1300)">
<path d="M20.0001 3.78906C19.9957 3.78906 19.9912 3.78906 19.9863 3.78906C19.9844 3.78906 19.9823 3.78906 19.9799 3.78906C19.9735 3.78906 19.9672 3.79036 19.9608 3.79036C11.0251 3.81061 3.78906 11.0599 3.78906 20C3.78906 28.9376 11.0251 36.1882 19.9608 36.2096C19.9672 36.2096 19.9735 36.2109 19.9799 36.2109C19.9823 36.2109 19.9843 36.2109 19.9863 36.2109C19.9912 36.2109 19.9957 36.2109 20.0001 36.2109C28.9514 36.2109 36.2109 28.9514 36.2109 20C36.2109 11.0473 28.9514 3.78906 20.0001 3.78906ZM20.6482 13.4903C22.3669 13.4434 24.0399 13.2167 25.6495 12.8242C26.1359 14.7353 26.4361 16.9377 26.4842 19.3516H20.6482V13.4903H20.6482ZM20.6482 12.1934V5.18854C22.3973 5.67233 24.1678 8.00267 25.2964 11.5767C23.7993 11.9376 22.2453 12.1479 20.6482 12.1934ZM19.3517 5.17331V12.1934C17.7421 12.1479 16.1753 11.9338 14.6663 11.5665C15.8042 7.97096 17.5919 5.63177 19.3517 5.17331ZM19.3517 13.489V19.3515H13.4758C13.5233 16.9338 13.8254 14.7288 14.3111 12.8165C15.934 13.2129 17.6191 13.4434 19.3517 13.489ZM12.1707 19.3516H5.10241C5.24551 16.0182 6.4873 12.9635 8.47565 10.5445C9.91947 11.3398 11.4513 11.9908 13.056 12.4771C12.5323 14.5452 12.2182 16.8768 12.1707 19.3516ZM12.1707 20.6484C12.2182 23.1219 12.5323 25.4535 13.0561 27.5216C11.452 28.0092 9.91953 28.6602 8.47572 29.4555C6.48737 27.0365 5.24557 23.9818 5.10247 20.6484H12.1707ZM13.4758 20.6484H19.3517V26.5034C17.6192 26.549 15.9335 26.7808 14.3105 27.1784C13.8247 25.2673 13.5233 23.0637 13.4758 20.6484ZM19.3517 27.799V34.8267C17.5907 34.3669 15.8018 32.0252 14.6645 28.4258C16.174 28.0586 17.7413 27.8446 19.3517 27.799ZM20.6482 34.8115V27.799C22.2453 27.8446 23.7993 28.0561 25.2976 28.417C24.1691 31.9936 22.3973 34.3277 20.6482 34.8115ZM20.6482 26.5034V20.6484H26.4842C26.4362 23.0598 26.1359 25.2596 25.6521 27.1695C24.0399 26.7769 22.3682 26.549 20.6482 26.5034ZM27.7887 20.6484H34.8975C34.7545 23.9818 33.5133 27.0353 31.5249 29.4543C30.0696 28.6538 28.5245 27.9979 26.906 27.509C27.429 25.4433 27.7418 23.1168 27.7887 20.6484ZM27.7887 19.3516C27.7418 16.8794 27.4277 14.5516 26.9048 12.4847C28.5221 11.9958 30.0673 11.3411 31.5212 10.5407C33.512 12.9596 34.7545 16.0157 34.8975 19.3516H27.7887ZM30.6283 9.55026C29.3378 10.2367 27.9762 10.804 26.5539 11.2347C25.7953 8.79544 24.7314 6.80456 23.4725 5.49753C26.2335 6.15996 28.6993 7.58848 30.6283 9.55026ZM16.4762 5.51022C15.2242 6.81471 14.1648 8.79674 13.4094 11.2233C12.001 10.7939 10.6509 10.2316 9.37246 9.55026C11.2885 7.60117 13.7355 6.17637 16.4762 5.51022ZM9.36797 30.4447C10.6477 29.762 11.9984 29.1997 13.4081 28.7704C14.1635 31.1995 15.2229 33.184 16.4761 34.4898C13.7336 33.8224 11.2854 32.3963 9.36797 30.4447ZM23.4725 34.5012C24.7327 33.1941 25.7965 31.202 26.5552 28.7589C27.9787 29.1909 29.3415 29.757 30.6321 30.4459C28.7031 32.409 26.236 33.84 23.4725 34.5012Z" fill="#FAFAFA"/>
</g>
<defs>
<clipPath id="clip0_5266_1300">
<rect width="33.3333" height="33.3333" fill="white" transform="translate(3.33337 3.3335)"/>
</clipPath>
</defs>
</svg>
