<svg width="40" height="40" viewBox="0 0 40 40" fill="none" xmlns="http://www.w3.org/2000/svg">
<path d="M16.5279 29.7222C15.0001 29.7222 13.7501 30.9722 13.7501 32.4999C13.7501 34.0277 15.0001 35.2777 16.5279 35.2777C18.0557 35.2777 19.3057 34.0277 19.3057 32.4999C19.3057 30.9722 18.0557 29.7222 16.5279 29.7222ZM16.5279 33.8888C15.764 33.8888 15.139 33.2638 15.139 32.4999C15.139 31.7361 15.764 31.1111 16.5279 31.1111C17.2918 31.1111 17.9168 31.7361 17.9168 32.4999C17.9168 33.2638 17.2918 33.8888 16.5279 33.8888Z" fill="#FAFAFA"/>
<path d="M29.0279 29.7222C27.5001 29.7222 26.2501 30.9722 26.2501 32.4999C26.2501 34.0277 27.5001 35.2777 29.0279 35.2777C30.5557 35.2777 31.8057 34.0277 31.8057 32.4999C31.8057 30.9722 30.5557 29.7222 29.0279 29.7222ZM29.0279 33.8888C28.264 33.8888 27.639 33.2638 27.639 32.4999C27.639 31.7361 28.264 31.1111 29.0279 31.1111C29.7918 31.1111 30.4168 31.7361 30.4168 32.4999C30.4168 33.2638 29.7918 33.8888 29.0279 33.8888Z" fill="#FAFAFA"/>
<path d="M33.6112 9.86106C33.1251 9.23606 32.2917 8.88883 31.4584 8.88883H12.2223L11.9445 7.08328C11.7362 5.76383 10.5556 4.72217 9.16673 4.72217H4.72229V6.11106H9.16673C9.86118 6.11106 10.4862 6.59717 10.5556 7.29161L13.4723 26.1111C13.7501 27.4305 14.9306 28.4027 16.2501 28.4027H31.1112V27.0138H16.2501C15.5556 27.0138 15.0001 26.5277 14.8612 25.8333L14.5834 24.1666H30.0001C31.3195 24.1666 32.5001 23.1944 32.7778 21.7361L34.2362 12.0138C34.3751 11.2499 34.1667 10.4861 33.6112 9.86106ZM32.8473 11.8749L31.389 21.5972C31.2501 22.3611 30.6945 22.8472 30.0001 22.8472H14.3751L12.4306 10.3472H31.4584C31.8751 10.3472 32.2917 10.5555 32.5695 10.8333C32.8473 11.0416 32.9167 11.4583 32.8473 11.8749Z" fill="#FAFAFA"/>
</svg>
