<svg width="40" height="40" viewBox="0 0 40 40" fill="none" xmlns="http://www.w3.org/2000/svg">
<g clip-path="url(#clip0_5266_1378)">
<path d="M19.9999 10.0413C19.9999 7.64801 18.0579 5.70801 15.6666 5.70801C13.2713 5.70801 11.3333 7.64801 11.3333 10.0413C11.3333 10.7127 11.4866 11.3447 11.7613 11.908" stroke="#FAFAFA" stroke-miterlimit="10" stroke-linejoin="round"/>
<path d="M33.5831 19.3528H32.4985C31.9331 19.3528 31.6651 19.1015 31.6238 18.8448C31.3285 16.9855 30.1205 14.5695 27.0845 13.5095C27.0551 11.8275 27.4305 10.6141 28.1611 8.64014C26.4631 9.06614 24.5871 9.9908 23.4765 12.4401C22.2251 12.1341 20.8878 11.9688 19.4911 11.9688C15.8345 11.9688 13.0765 13.0781 10.8685 14.7968C8.87447 16.3495 7.62181 18.9495 7.77047 22.4961C7.88247 25.1715 9.74581 27.2128 11.1751 28.3561C11.3811 28.5188 11.7918 28.7795 11.5771 29.4441C11.3618 30.1075 10.9751 31.0335 10.9751 31.0335C10.7498 31.6241 11.0491 32.2875 11.6391 32.5121L13.7845 33.3228C14.3751 33.5481 15.0385 33.2501 15.2631 32.6588C15.2631 32.6588 15.5485 31.9155 15.7805 31.2955C16.2211 30.1301 16.4905 31.0755 19.4911 31.0755C22.6091 31.0755 22.9238 30.4675 23.2498 31.4221C23.4585 32.0455 23.7185 32.6588 23.7185 32.6588C23.9411 33.2501 24.6051 33.5481 25.1978 33.3228L27.3405 32.5121C27.9325 32.2875 28.2325 31.6241 28.0065 31.0335L27.6625 30.1235C27.6625 30.1235 27.3125 29.5235 28.0625 29.1161C29.5571 28.3028 30.6838 27.0688 31.4145 25.5448C31.5698 25.2181 31.7991 24.7741 32.4985 24.7741H33.5831C34.1805 24.7741 34.6665 24.2881 34.6665 23.6915V20.4388C34.6665 19.8408 34.1805 19.3528 33.5831 19.3528Z" stroke="#FAFAFA" stroke-miterlimit="10" stroke-linecap="round" stroke-linejoin="round"/>
<path d="M27.6533 21.2816C26.9473 21.2816 26.376 20.7103 26.376 20.0056C26.376 19.3023 26.9473 18.731 27.6533 18.731C28.3573 18.731 28.9266 19.3023 28.9266 20.0056C28.9273 20.7096 28.3573 21.2816 27.6533 21.2816Z" fill="#FAFAFA"/>
<path d="M7.88392 18.7306C7.88392 18.7306 5.33325 18.1466 5.33325 15.846C5.33325 14.9026 5.80925 14.0346 6.64192 13.6753" stroke="#FAFAFA" stroke-miterlimit="10" stroke-linecap="round" stroke-linejoin="round"/>
</g>
<defs>
<clipPath id="clip0_5266_1378">
<rect width="33.3333" height="33.3333" fill="white" transform="translate(3.33325 3.3335)"/>
</clipPath>
</defs>
</svg>
