<svg width="28" height="28" viewBox="0 0 28 28" fill="none" xmlns="http://www.w3.org/2000/svg">
<path fill-rule="evenodd" clip-rule="evenodd" d="M3.46332 6.66585C2.72584 6.89803 2.7395 7.93596 3.47698 8.15448C5.62114 8.7827 7.32828 10.4352 7.99747 12.5657C8.22964 13.3032 9.26758 13.2895 9.48609 12.5521C10.1143 10.4079 11.7668 8.70076 13.8973 8.03156C14.6348 7.79939 14.6212 6.76145 13.8837 6.54294C11.7395 5.91472 10.0324 4.26221 9.36318 2.1317C9.24027 1.74931 8.85787 1.53079 8.47547 1.59908C8.18867 1.65371 7.9565 1.85856 7.87456 2.14536C7.24633 4.28952 5.59383 5.99666 3.46332 6.66585Z" fill="#FFAAA7"/>
<path fill-rule="evenodd" clip-rule="evenodd" d="M14.103 13.316C13.3655 13.5482 13.3791 14.5861 14.1166 14.8046C16.2608 15.4328 17.9679 17.0854 18.6371 19.2159C18.8693 19.9533 19.9072 19.9397 20.1257 19.2022C20.754 17.058 22.4065 15.3509 24.537 14.6817C25.2745 14.4495 25.2608 13.4116 24.5233 13.1931C22.3792 12.5649 20.672 10.9124 20.0028 8.78185C19.8799 8.39945 19.4975 8.18094 19.1151 8.24923C18.8283 8.30385 18.5962 8.50871 18.5142 8.79551C17.886 10.9397 16.2335 12.6468 14.103 13.316Z" fill="#FFAAA7"/>
<path fill-rule="evenodd" clip-rule="evenodd" d="M3.46332 19.9659C2.72584 20.1981 2.7395 21.236 3.47698 21.4545C5.62114 22.0828 7.32828 23.7353 7.99747 25.8658C8.22964 26.6032 9.26758 26.5896 9.48609 25.8521C10.1143 23.7079 11.7668 22.0008 13.8973 21.3316C14.6348 21.0994 14.6212 20.0615 13.8837 19.843C11.7395 19.2148 10.0324 17.5623 9.36318 15.4318C9.24027 15.0494 8.85787 14.8308 8.47547 14.8991C8.18867 14.9538 7.9565 15.1586 7.87456 15.4454C7.24633 17.5896 5.59383 19.2967 3.46332 19.9659Z" fill="#FFAAA7"/>
</svg>
